<?xml version="1.0"?>
<svg width="768" height="768" xmlns="http://www.w3.org/2000/svg">
 <g>
  <title>background</title>
  <rect fill="none" id="canvas_background" height="770" width="770" y="-1" x="-1"/>
 </g>

 <g>
  <title>Layer 1</title>
  <path id="svg_95" d="m320,128l-192,0c-35.360001,0 -63.68,28.639999 -63.68,64l-0.32,384c0,35.359985 28.639999,64 64,64l512,0c35.359985,0 64,-28.640015 64,-64l0,-320c0,-35.360001 -28.640015,-64 -64,-64l-256,0l-64,-64z" fill="#222"/>
  <path stroke="null" d="m311.399506,331.328918l-26.431396,-21.883118l-92.853119,111.818481l92.853119,111.904297l26.431396,-21.883087l-74.66011,-90.02121l74.66011,-89.935364zm-13.215698,107.098602l34.326477,0l0,-34.326447l-34.326477,0l0,34.326447zm171.632355,-34.326447l-34.326477,0l0,34.326447l34.326477,0l0,-34.326447zm-102.979431,34.326447l34.326477,0l0,-34.326447l-34.326477,0l0,34.326447zm116.195129,-129.067535l-26.431396,21.883148l74.660095,90.021149l-74.660095,89.935364l26.431396,21.883118l92.853149,-111.818481l-92.853149,-111.904297l0,0z" fill="#fff" id="svg_1"/>
 </g>
</svg>